<svg id="visual" viewBox="0 0 960 540" width="960" height="540" xmlns="http://www.w3.org/2000/svg" xmlns:xlink="http://www.w3.org/1999/xlink" version="1.1"><rect x="0" y="0" width="960" height="540" fill="#001220"></rect><path d="M502 540L486.2 528.8C470.3 517.7 438.7 495.3 418.3 472.8C398 450.3 389 427.7 403.5 405.2C418 382.7 456 360.3 469.3 337.8C482.7 315.3 471.3 292.7 468.7 270.2C466 247.7 472 225.3 463.5 202.8C455 180.3 432 157.7 425.7 135.2C419.3 112.7 429.7 90.3 439.2 67.8C448.7 45.3 457.3 22.7 461.7 11.3L466 0L960 0L960 11.3C960 22.7 960 45.3 960 67.8C960 90.3 960 112.7 960 135.2C960 157.7 960 180.3 960 202.8C960 225.3 960 247.7 960 270.2C960 292.7 960 315.3 960 337.8C960 360.3 960 382.7 960 405.2C960 427.7 960 450.3 960 472.8C960 495.3 960 517.7 960 528.8L960 540Z" fill="#6366f1"></path><path d="M459 540L461.7 528.8C464.3 517.7 469.7 495.3 486 472.8C502.3 450.3 529.7 427.7 527.8 405.2C526 382.7 495 360.3 492.7 337.8C490.3 315.3 516.7 292.7 533.3 270.2C550 247.7 557 225.3 547.8 202.8C538.7 180.3 513.3 157.7 497 135.2C480.7 112.7 473.3 90.3 481 67.8C488.7 45.3 511.3 22.7 522.7 11.3L534 0L960 0L960 11.3C960 22.7 960 45.3 960 67.8C960 90.3 960 112.7 960 135.2C960 157.7 960 180.3 960 202.8C960 225.3 960 247.7 960 270.2C960 292.7 960 315.3 960 337.8C960 360.3 960 382.7 960 405.2C960 427.7 960 450.3 960 472.8C960 495.3 960 517.7 960 528.8L960 540Z" fill="#4657c8"></path><path d="M607 540L597.3 528.8C587.7 517.7 568.3 495.3 571.8 472.8C575.3 450.3 601.7 427.7 610.2 405.2C618.7 382.7 609.3 360.3 601.7 337.8C594 315.3 588 292.7 580.2 270.2C572.3 247.7 562.7 225.3 571.3 202.8C580 180.3 607 157.7 625.2 135.2C643.3 112.7 652.7 90.3 653.8 67.8C655 45.3 648 22.7 644.5 11.3L641 0L960 0L960 11.3C960 22.7 960 45.3 960 67.8C960 90.3 960 112.7 960 135.2C960 157.7 960 180.3 960 202.8C960 225.3 960 247.7 960 270.2C960 292.7 960 315.3 960 337.8C960 360.3 960 382.7 960 405.2C960 427.7 960 450.3 960 472.8C960 495.3 960 517.7 960 528.8L960 540Z" fill="#2f489e"></path><path d="M686 540L685.7 528.8C685.3 517.7 684.7 495.3 685 472.8C685.3 450.3 686.7 427.7 691.8 405.2C697 382.7 706 360.3 710.8 337.8C715.7 315.3 716.3 292.7 717.5 270.2C718.7 247.7 720.3 225.3 719.7 202.8C719 180.3 716 157.7 702.7 135.2C689.3 112.7 665.7 90.3 658.7 67.8C651.7 45.3 661.3 22.7 666.2 11.3L671 0L960 0L960 11.3C960 22.7 960 45.3 960 67.8C960 90.3 960 112.7 960 135.2C960 157.7 960 180.3 960 202.8C960 225.3 960 247.7 960 270.2C960 292.7 960 315.3 960 337.8C960 360.3 960 382.7 960 405.2C960 427.7 960 450.3 960 472.8C960 495.3 960 517.7 960 528.8L960 540Z" fill="#1f3876"></path><path d="M767 540L769.5 528.8C772 517.7 777 495.3 770.7 472.8C764.3 450.3 746.7 427.7 751 405.2C755.3 382.7 781.7 360.3 793.5 337.8C805.3 315.3 802.7 292.7 797 270.2C791.3 247.7 782.7 225.3 777.3 202.8C772 180.3 770 157.7 775 135.2C780 112.7 792 90.3 793 67.8C794 45.3 784 22.7 779 11.3L774 0L960 0L960 11.3C960 22.7 960 45.3 960 67.8C960 90.3 960 112.7 960 135.2C960 157.7 960 180.3 960 202.8C960 225.3 960 247.7 960 270.2C960 292.7 960 315.3 960 337.8C960 360.3 960 382.7 960 405.2C960 427.7 960 450.3 960 472.8C960 495.3 960 517.7 960 528.8L960 540Z" fill="#15274f"></path><path d="M829 540L828.5 528.8C828 517.7 827 495.3 835.8 472.8C844.7 450.3 863.3 427.7 871.5 405.2C879.7 382.7 877.3 360.3 868.5 337.8C859.7 315.3 844.3 292.7 839.8 270.2C835.3 247.7 841.7 225.3 843.7 202.8C845.7 180.3 843.3 157.7 844 135.2C844.7 112.7 848.3 90.3 846 67.8C843.7 45.3 835.3 22.7 831.2 11.3L827 0L960 0L960 11.3C960 22.7 960 45.3 960 67.8C960 90.3 960 112.7 960 135.2C960 157.7 960 180.3 960 202.8C960 225.3 960 247.7 960 270.2C960 292.7 960 315.3 960 337.8C960 360.3 960 382.7 960 405.2C960 427.7 960 450.3 960 472.8C960 495.3 960 517.7 960 528.8L960 540Z" fill="#0f172a"></path></svg>