<svg id="visual" viewBox="0 0 540 960" width="540" height="960" xmlns="http://www.w3.org/2000/svg" xmlns:xlink="http://www.w3.org/1999/xlink" version="1.1"><rect x="0" y="0" width="540" height="960" fill="#001220"></rect><path d="M0 524L11.3 517.2C22.7 510.3 45.3 496.7 67.8 490.2C90.3 483.7 112.7 484.3 135.2 497C157.7 509.7 180.3 534.3 202.8 538C225.3 541.7 247.7 524.3 270.2 524.5C292.7 524.7 315.3 542.3 337.8 533.5C360.3 524.7 382.7 489.3 405.2 475.7C427.7 462 450.3 470 472.8 476.8C495.3 483.7 517.7 489.3 528.8 492.2L540 495L540 961L528.8 961C517.7 961 495.3 961 472.8 961C450.3 961 427.7 961 405.2 961C382.7 961 360.3 961 337.8 961C315.3 961 292.7 961 270.2 961C247.7 961 225.3 961 202.8 961C180.3 961 157.7 961 135.2 961C112.7 961 90.3 961 67.8 961C45.3 961 22.7 961 11.3 961L0 961Z" fill="#6366f1"></path><path d="M0 567L11.3 571.3C22.7 575.7 45.3 584.3 67.8 586.8C90.3 589.3 112.7 585.7 135.2 584C157.7 582.3 180.3 582.7 202.8 574.3C225.3 566 247.7 549 270.2 554.3C292.7 559.7 315.3 587.3 337.8 597.2C360.3 607 382.7 599 405.2 586.7C427.7 574.3 450.3 557.7 472.8 560.3C495.3 563 517.7 585 528.8 596L540 607L540 961L528.8 961C517.7 961 495.3 961 472.8 961C450.3 961 427.7 961 405.2 961C382.7 961 360.3 961 337.8 961C315.3 961 292.7 961 270.2 961C247.7 961 225.3 961 202.8 961C180.3 961 157.7 961 135.2 961C112.7 961 90.3 961 67.8 961C45.3 961 22.7 961 11.3 961L0 961Z" fill="#4657c8"></path><path d="M0 674L11.3 661.5C22.7 649 45.3 624 67.8 616C90.3 608 112.7 617 135.2 626C157.7 635 180.3 644 202.8 650.3C225.3 656.7 247.7 660.3 270.2 661.2C292.7 662 315.3 660 337.8 651.2C360.3 642.3 382.7 626.7 405.2 620.7C427.7 614.7 450.3 618.3 472.8 621.7C495.3 625 517.7 628 528.8 629.5L540 631L540 961L528.8 961C517.7 961 495.3 961 472.8 961C450.3 961 427.7 961 405.2 961C382.7 961 360.3 961 337.8 961C315.3 961 292.7 961 270.2 961C247.7 961 225.3 961 202.8 961C180.3 961 157.7 961 135.2 961C112.7 961 90.3 961 67.8 961C45.3 961 22.7 961 11.3 961L0 961Z" fill="#2f489e"></path><path d="M0 747L11.3 744.7C22.7 742.3 45.3 737.7 67.8 735C90.3 732.3 112.7 731.7 135.2 722.3C157.7 713 180.3 695 202.8 691.5C225.3 688 247.7 699 270.2 709.5C292.7 720 315.3 730 337.8 738.5C360.3 747 382.7 754 405.2 751.7C427.7 749.3 450.3 737.7 472.8 729C495.3 720.3 517.7 714.7 528.8 711.8L540 709L540 961L528.8 961C517.7 961 495.3 961 472.8 961C450.3 961 427.7 961 405.2 961C382.7 961 360.3 961 337.8 961C315.3 961 292.7 961 270.2 961C247.7 961 225.3 961 202.8 961C180.3 961 157.7 961 135.2 961C112.7 961 90.3 961 67.8 961C45.3 961 22.7 961 11.3 961L0 961Z" fill="#1f3876"></path><path d="M0 804L11.3 797.5C22.7 791 45.3 778 67.8 781.5C90.3 785 112.7 805 135.2 815C157.7 825 180.3 825 202.8 815C225.3 805 247.7 785 270.2 777.7C292.7 770.3 315.3 775.7 337.8 775.8C360.3 776 382.7 771 405.2 778.7C427.7 786.3 450.3 806.7 472.8 813.5C495.3 820.3 517.7 813.7 528.8 810.3L540 807L540 961L528.8 961C517.7 961 495.3 961 472.8 961C450.3 961 427.7 961 405.2 961C382.7 961 360.3 961 337.8 961C315.3 961 292.7 961 270.2 961C247.7 961 225.3 961 202.8 961C180.3 961 157.7 961 135.2 961C112.7 961 90.3 961 67.8 961C45.3 961 22.7 961 11.3 961L0 961Z" fill="#15274f"></path><path d="M0 874L11.3 871.7C22.7 869.3 45.3 864.7 67.8 862.3C90.3 860 112.7 860 135.2 864.3C157.7 868.7 180.3 877.3 202.8 878.2C225.3 879 247.7 872 270.2 865.5C292.7 859 315.3 853 337.8 855.7C360.3 858.3 382.7 869.7 405.2 869.2C427.7 868.7 450.3 856.3 472.8 853.5C495.3 850.7 517.7 857.3 528.8 860.7L540 864L540 961L528.8 961C517.7 961 495.3 961 472.8 961C450.3 961 427.7 961 405.2 961C382.7 961 360.3 961 337.8 961C315.3 961 292.7 961 270.2 961C247.7 961 225.3 961 202.8 961C180.3 961 157.7 961 135.2 961C112.7 961 90.3 961 67.8 961C45.3 961 22.7 961 11.3 961L0 961Z" fill="#0f172a"></path></svg>