<svg id="visual" viewBox="0 0 900 675" width="900" height="675" xmlns="http://www.w3.org/2000/svg" xmlns:xlink="http://www.w3.org/1999/xlink" version="1.1"><rect x="0" y="0" width="900" height="675" fill="#001220"></rect><path d="M435 675L427.7 661C420.3 647 405.7 619 398.8 590.8C392 562.7 393 534.3 406.5 506.2C420 478 446 450 449.8 422C453.7 394 435.3 366 435.7 337.8C436 309.7 455 281.3 445.5 253.2C436 225 398 197 383.2 168.8C368.3 140.7 376.7 112.3 384 84.2C391.3 56 397.7 28 400.8 14L404 0L900 0L900 14C900 28 900 56 900 84.2C900 112.3 900 140.7 900 168.8C900 197 900 225 900 253.2C900 281.3 900 309.7 900 337.8C900 366 900 394 900 422C900 450 900 478 900 506.2C900 534.3 900 562.7 900 590.8C900 619 900 647 900 661L900 675Z" fill="#6366f1"></path><path d="M481 675L485.7 661C490.3 647 499.7 619 502.3 590.8C505 562.7 501 534.3 499.2 506.2C497.3 478 497.7 450 488.7 422C479.7 394 461.3 366 467 337.8C472.7 309.7 502.3 281.3 513 253.2C523.7 225 515.3 197 502.2 168.8C489 140.7 471 112.3 473.8 84.2C476.7 56 500.3 28 512.2 14L524 0L900 0L900 14C900 28 900 56 900 84.2C900 112.3 900 140.7 900 168.8C900 197 900 225 900 253.2C900 281.3 900 309.7 900 337.8C900 366 900 394 900 422C900 450 900 478 900 506.2C900 534.3 900 562.7 900 590.8C900 619 900 647 900 661L900 675Z" fill="#4657c8"></path><path d="M595 675L581.7 661C568.3 647 541.7 619 533.3 590.8C525 562.7 535 534.3 544.7 506.2C554.3 478 563.7 450 570.3 422C577 394 581 366 582 337.8C583 309.7 581 281.3 571.5 253.2C562 225 545 197 538.5 168.8C532 140.7 536 112.3 539.7 84.2C543.3 56 546.7 28 548.3 14L550 0L900 0L900 14C900 28 900 56 900 84.2C900 112.3 900 140.7 900 168.8C900 197 900 225 900 253.2C900 281.3 900 309.7 900 337.8C900 366 900 394 900 422C900 450 900 478 900 506.2C900 534.3 900 562.7 900 590.8C900 619 900 647 900 661L900 675Z" fill="#2f489e"></path><path d="M674 675L671.3 661C668.7 647 663.3 619 660.5 590.8C657.7 562.7 657.3 534.3 647.3 506.2C637.3 478 617.7 450 613.8 422C610 394 622 366 633.3 337.8C644.7 309.7 655.3 281.3 664.3 253.2C673.3 225 680.7 197 678.2 168.8C675.7 140.7 663.3 112.3 654.2 84.2C645 56 639 28 636 14L633 0L900 0L900 14C900 28 900 56 900 84.2C900 112.3 900 140.7 900 168.8C900 197 900 225 900 253.2C900 281.3 900 309.7 900 337.8C900 366 900 394 900 422C900 450 900 478 900 506.2C900 534.3 900 562.7 900 590.8C900 619 900 647 900 661L900 675Z" fill="#1f3876"></path><path d="M735 675L728 661C721 647 707 619 710.7 590.8C714.3 562.7 735.7 534.3 746.3 506.2C757 478 757 450 746.3 422C735.7 394 714.3 366 706.5 337.8C698.7 309.7 704.3 281.3 704.5 253.2C704.7 225 699.3 197 707.5 168.8C715.7 140.7 737.3 112.3 744.8 84.2C752.3 56 745.7 28 742.3 14L739 0L900 0L900 14C900 28 900 56 900 84.2C900 112.3 900 140.7 900 168.8C900 197 900 225 900 253.2C900 281.3 900 309.7 900 337.8C900 366 900 394 900 422C900 450 900 478 900 506.2C900 534.3 900 562.7 900 590.8C900 619 900 647 900 661L900 675Z" fill="#15274f"></path><path d="M810 675L807.5 661C805 647 800 619 797.5 590.8C795 562.7 795 534.3 799.7 506.2C804.3 478 813.7 450 814.5 422C815.3 394 807.7 366 800.7 337.8C793.7 309.7 787.3 281.3 790.2 253.2C793 225 805 197 804.3 168.8C803.7 140.7 790.3 112.3 787.3 84.2C784.3 56 791.7 28 795.3 14L799 0L900 0L900 14C900 28 900 56 900 84.2C900 112.3 900 140.7 900 168.8C900 197 900 225 900 253.2C900 281.3 900 309.7 900 337.8C900 366 900 394 900 422C900 450 900 478 900 506.2C900 534.3 900 562.7 900 590.8C900 619 900 647 900 661L900 675Z" fill="#0f172a"></path></svg>